<svg width="89" height="24" viewBox="0 0 89 24" fill="none" xmlns="http://www.w3.org/2000/svg">
<g clip-path="url(#clip0_910_112)">
<path d="M14.8547 0.84375C14.6062 0.328125 14.0812 0 13.5047 0C12.9281 0 12.4078 0.328125 12.1547 0.84375L9.14061 7.04531L2.40936 8.03906C1.84686 8.12344 1.37811 8.51719 1.20467 9.05625C1.03123 9.59531 1.17186 10.1906 1.57498 10.5891L6.45936 15.4219L5.30623 22.2516C5.21248 22.8141 5.44686 23.3859 5.91092 23.7188C6.37498 24.0516 6.98905 24.0937 7.4953 23.8266L13.5094 20.6156L19.5234 23.8266C20.0297 24.0937 20.6437 24.0562 21.1078 23.7188C21.5719 23.3813 21.8062 22.8141 21.7125 22.2516L20.5547 15.4219L25.439 10.5891C25.8422 10.1906 25.9875 9.59531 25.8094 9.05625C25.6312 8.51719 25.1672 8.12344 24.6047 8.03906L17.8687 7.04531L14.8547 0.84375Z" fill="#FFCC00"/>
</g>
<g clip-path="url(#clip1_910_112)">
<path d="M45.8547 0.84375C45.6062 0.328125 45.0812 0 44.5047 0C43.9281 0 43.4078 0.328125 43.1547 0.84375L40.1406 7.04531L33.4094 8.03906C32.8469 8.12344 32.3781 8.51719 32.2047 9.05625C32.0312 9.59531 32.1719 10.1906 32.575 10.5891L37.4594 15.4219L36.3062 22.2516C36.2125 22.8141 36.4469 23.3859 36.9109 23.7188C37.375 24.0516 37.989 24.0937 38.4953 23.8266L44.5094 20.6156L50.5234 23.8266C51.0297 24.0937 51.6437 24.0562 52.1078 23.7188C52.5719 23.3813 52.8062 22.8141 52.7125 22.2516L51.5547 15.4219L56.439 10.5891C56.8422 10.1906 56.9875 9.59531 56.8094 9.05625C56.6312 8.51719 56.1672 8.12344 55.6047 8.03906L48.8687 7.04531L45.8547 0.84375Z" fill="#FFCC00"/>
</g>
<g clip-path="url(#clip2_910_112)">
<path d="M76.8547 0.84375C76.6062 0.328125 76.0812 0 75.5047 0C74.9281 0 74.4078 0.328125 74.1547 0.84375L71.1406 7.04531L64.4094 8.03906C63.8469 8.12344 63.3781 8.51719 63.2047 9.05625C63.0312 9.59531 63.1719 10.1906 63.575 10.5891L68.4594 15.4219L67.3062 22.2516C67.2125 22.8141 67.4469 23.3859 67.9109 23.7188C68.375 24.0516 68.989 24.0937 69.4953 23.8266L75.5094 20.6156L81.5234 23.8266C82.0297 24.0937 82.6437 24.0562 83.1078 23.7188C83.5719 23.3813 83.8062 22.8141 83.7125 22.2516L82.5547 15.4219L87.439 10.5891C87.8422 10.1906 87.9875 9.59531 87.8094 9.05625C87.6312 8.51719 87.1672 8.12344 86.6047 8.03906L79.8687 7.04531L76.8547 0.84375Z" fill="#FFCC00"/>
</g>
<defs>
<clipPath id="clip0_910_112">
<rect width="27" height="24" fill="white"/>
</clipPath>
<clipPath id="clip1_910_112">
<rect width="27" height="24" fill="white" transform="translate(31)"/>
</clipPath>
<clipPath id="clip2_910_112">
<rect width="27" height="24" fill="white" transform="translate(62)"/>
</clipPath>
</defs>
</svg>
